<?xml version="1.0" standalone="no"?>
<!DOCTYPE svg PUBLIC "-//W3C//DTD SVG 20010904//EN"
 "http://www.w3.org/TR/2001/REC-SVG-20010904/DTD/svg10.dtd">
<svg version="1.0" xmlns="http://www.w3.org/2000/svg"
 width="700.000000pt" height="700.000000pt" viewBox="0 0 700.000000 700.000000"
 preserveAspectRatio="xMidYMid meet">
<metadata>
Created by potrace 1.14, written by Peter Selinger 2001-2017
</metadata>
<g transform="translate(0.000000,700.000000) scale(0.100000,-0.100000)"
fill="#000000" stroke="none">
<path d="M105 6981 c-48 -22 -69 -44 -90 -94 -13 -32 -15 -394 -15 -3389 0
-3232 1 -3354 19 -3393 22 -48 44 -69 94 -90 32 -13 394 -15 3389 -15 3232 0
3354 1 3393 19 48 22 69 44 90 94 13 32 15 394 15 3387 0 2993 -2 3355 -15
3387 -21 50 -42 72 -90 94 -39 18 -161 19 -3395 19 -3234 0 -3356 -1 -3395
-19z m6535 -3481 l0 -3140 -3140 0 -3140 0 0 3140 0 3140 3140 0 3140 0 0
-3140z"/>
<path d="M1620 5144 c0 -13 698 -3166 727 -3282 l5 -22 501 2 502 3 286 1033
c158 568 289 1035 291 1037 2 3 134 -464 293 -1035 l290 -1040 501 0 502 0 5
28 c19 91 719 3260 723 3275 5 16 -22 17 -479 17 l-485 0 -10 -47 c-5 -27 -83
-437 -173 -913 -89 -476 -165 -868 -168 -872 -3 -4 -121 407 -260 913 l-255
919 -485 -2 -485 -3 -252 -913 c-138 -502 -254 -916 -258 -919 -3 -4 -6 -2 -6
4 0 14 -339 1806 -345 1821 -3 9 -110 12 -485 12 -439 0 -480 -1 -480 -16z"/>
<path d="M750 4010 l0 -230 230 0 230 0 0 230 0 230 -230 0 -230 0 0 -230z"/>
<path d="M750 2075 l0 -235 230 0 230 0 0 235 0 235 -230 0 -230 0 0 -235z"/>
</g>
</svg>
